<svg width="20" height="20" viewBox="0 0 20 20" fill="none" xmlns="http://www.w3.org/2000/svg">
<path d="M13.125 8.75V5C13.125 4.1712 12.7957 3.37634 12.2097 2.79029C11.6236 2.20424 10.8288 1.875 9.99999 1.875C9.17119 1.875 8.37633 2.20424 7.79028 2.79029C7.20423 3.37634 6.87499 4.1712 6.87499 5V8.75M16.3383 7.08917L17.3908 17.0892C17.4492 17.6433 17.0158 18.125 16.4583 18.125H3.54165C3.41016 18.1251 3.28011 18.0976 3.15994 18.0442C3.03978 17.9908 2.93219 17.9127 2.84417 17.8151C2.75615 17.7174 2.68967 17.6023 2.64903 17.4772C2.6084 17.3521 2.59453 17.2199 2.60832 17.0892L3.66165 7.08917C3.68595 6.8588 3.79468 6.64558 3.96686 6.49063C4.13905 6.33568 4.36251 6.24996 4.59415 6.25H15.4058C15.8858 6.25 16.2883 6.6125 16.3383 7.08917ZM7.18749 8.75C7.18749 8.83288 7.15456 8.91237 7.09596 8.97097C7.03735 9.02958 6.95787 9.0625 6.87499 9.0625C6.79211 9.0625 6.71262 9.02958 6.65402 8.97097C6.59541 8.91237 6.56249 8.83288 6.56249 8.75C6.56249 8.66712 6.59541 8.58763 6.65402 8.52903C6.71262 8.47042 6.79211 8.4375 6.87499 8.4375C6.95787 8.4375 7.03735 8.47042 7.09596 8.52903C7.15456 8.58763 7.18749 8.66712 7.18749 8.75ZM13.4375 8.75C13.4375 8.83288 13.4046 8.91237 13.346 8.97097C13.2874 9.02958 13.2079 9.0625 13.125 9.0625C13.0421 9.0625 12.9626 9.02958 12.904 8.97097C12.8454 8.91237 12.8125 8.83288 12.8125 8.75C12.8125 8.66712 12.8454 8.58763 12.904 8.52903C12.9626 8.47042 13.0421 8.4375 13.125 8.4375C13.2079 8.4375 13.2874 8.47042 13.346 8.52903C13.4046 8.58763 13.4375 8.66712 13.4375 8.75Z" stroke="black" stroke-width="1.25" stroke-linecap="round" stroke-linejoin="round"/>
</svg>
